<svg width="36" height="36" viewBox="0 0 36 36" fill="none" xmlns="http://www.w3.org/2000/svg">
<!-- <rect width="128" height="128" fill="white" fill-opacity="0.75"/> -->
<path d="M32.128 79.464C30.176 79.464 28.432 79.096 26.896 78.36C25.36 77.592 24.16 76.552 23.296 75.24C22.432 73.896 22 72.392 22 70.728V63.624C22 61.928 22.448 60.392 23.344 59.016C24.272 57.64 25.504 56.568 27.04 55.8C28.608 55 30.304 54.6 32.128 54.6C33.952 54.6 35.616 54.984 37.12 55.752C38.656 56.52 39.856 57.576 40.72 58.92C41.616 60.264 42.064 61.784 42.064 63.48V66.552C42.064 67.064 41.872 67.496 41.488 67.848C41.104 68.2 40.64 68.376 40.096 68.376H26.08V70.536C26.08 72.168 26.592 73.48 27.616 74.472C28.672 75.464 30.176 75.96 32.128 75.96C34.08 75.96 35.568 75.528 36.592 74.664C37.616 73.8 38.128 72.632 38.128 71.16C39.088 71.096 39.888 71.288 40.528 71.736C41.2 72.152 41.536 72.776 41.536 73.608C41.536 74.632 41.088 75.592 40.192 76.488C39.328 77.384 38.176 78.104 36.736 78.648C35.296 79.192 33.76 79.464 32.128 79.464ZM38.176 65.112V63.48C38.176 61.88 37.616 60.584 36.496 59.592C35.408 58.568 33.952 58.056 32.128 58.056C30.304 58.056 28.832 58.568 27.712 59.592C26.624 60.584 26.08 61.88 26.08 63.48V65.112H38.176Z" fill="black"/>
<path d="M56.389 79.464C53.637 79.464 51.397 78.712 49.669 77.208C47.973 75.672 47.125 73.64 47.125 71.112V62.904C47.125 61.272 47.525 59.832 48.325 58.584C49.125 57.304 50.229 56.328 51.637 55.656C53.077 54.952 54.725 54.6 56.581 54.6C58.085 54.6 59.477 54.92 60.757 55.56C62.037 56.168 63.157 56.984 64.117 58.008L64.261 57.768C64.037 57.448 63.701 57.096 63.253 56.712V48.264C63.253 47.208 63.605 46.408 64.309 45.864C65.013 45.288 66.069 45 67.477 45V76.056C67.477 77.112 67.157 77.944 66.517 78.552C65.909 79.16 64.917 79.464 63.541 79.464V76.776C63.989 76.2 64.293 75.784 64.453 75.528L64.309 75.336C63.285 76.616 62.149 77.624 60.901 78.36C59.653 79.096 58.149 79.464 56.389 79.464ZM57.301 75.768C58.997 75.768 60.421 75.336 61.573 74.472C62.725 73.576 63.301 72.472 63.301 71.16V62.856C63.301 61.576 62.757 60.504 61.669 59.64C60.581 58.744 59.109 58.296 57.253 58.296C55.365 58.296 53.893 58.728 52.837 59.592C51.813 60.424 51.301 61.592 51.301 63.096V70.92C51.301 72.488 51.813 73.688 52.837 74.52C53.893 75.352 55.381 75.768 57.301 75.768Z" fill="black"/>
<path d="M77.3511 51C76.4551 51 75.7031 50.712 75.0951 50.136C74.4871 49.56 74.1831 48.84 74.1831 47.976C74.1831 47.112 74.4871 46.408 75.0951 45.864C75.7031 45.288 76.4551 45 77.3511 45C78.2151 45 78.9511 45.288 79.5591 45.864C80.1671 46.408 80.4711 47.112 80.4711 47.976C80.4711 48.84 80.1671 49.56 79.5591 50.136C78.9511 50.712 78.2151 51 77.3511 51ZM75.2391 57.672C75.2391 56.616 75.5751 55.848 76.2471 55.368C76.9511 54.856 78.0071 54.6 79.4151 54.6V76.392C79.4151 77.448 79.0631 78.232 78.3591 78.744C77.6871 79.224 76.6471 79.464 75.2391 79.464V57.672Z" fill="black"/>
<path d="M96.7664 79.464C94.4944 79.464 92.7984 78.824 91.6784 77.544C90.5584 76.232 89.9984 74.52 89.9984 72.408V58.392H85.5344C85.5344 57.304 85.7744 56.472 86.2544 55.896C86.7344 55.32 87.3904 55.032 88.2224 55.032H90.0464V50.472C90.0464 49.416 90.3824 48.648 91.0544 48.168C91.7584 47.656 92.7984 47.4 94.1744 47.4V55.032H100.558C100.558 57.272 99.5504 58.392 97.5344 58.392H94.2224V72.264C94.2224 73.544 94.4464 74.456 94.8944 75C95.3744 75.512 96.2224 75.768 97.4384 75.768C98.5584 75.768 99.6144 75.48 100.606 74.904C101.022 75.32 101.23 75.88 101.23 76.584C101.23 77.352 100.83 78.024 100.03 78.6C99.2304 79.176 98.1424 79.464 96.7664 79.464Z" fill="black"/>
</svg>
